PathFileType	4	(X/Y/Z)	/Users/itak/Documents/Research/Walk-IL/dataset/trc/00140_00007.trc
DataRate	CameraRate	NumFrames	NumMarkers	Units	OrigDataRate	OrigDataStartFrame	OrigNumFrames
100.000000	100.000000	4	53	mm	100.000000	335	536
Frame#	Time	RPSI			LPSI			L3			STRN			T10			C7			CLAV			RBAK			LBAK			LSHO			LUPA			LAEL			LAOL			LWTS			LWPS			LFRA			LIFD			LHPS			LHTS			RSHO			RUPA			RAEL			RAOL			RWTS			RWPS			RFRA			RIFD			RHTS			RHPS			RBHD			LFHD			RFHD			LBHD			LHIP			RHIP			RASI			LASI			LKNE			LTHI			LANK			LTIP			LTOE			LMT1			LMT5			LHEE			RKNE			RTHI			RANK			RTIP			RTOE			RMT1			RMT5			RHEE			
		X1	Y1	Z1	X2	Y2	Z2	X3	Y3	Z3	X4	Y4	Z4	X5	Y5	Z5	X6	Y6	Z6	X7	Y7	Z7	X8	Y8	Z8	X9	Y9	Z9	X10	Y10	Z10	X11	Y11	Z11	X12	Y12	Z12	X13	Y13	Z13	X14	Y14	Z14	X15	Y15	Z15	X16	Y16	Z16	X17	Y17	Z17	X18	Y18	Z18	X19	Y19	Z19	X20	Y20	Z20	X21	Y21	Z21	X22	Y22	Z22	X23	Y23	Z23	X24	Y24	Z24	X25	Y25	Z25	X26	Y26	Z26	X27	Y27	Z27	X28	Y28	Z28	X29	Y29	Z29	X30	Y30	Z30	X31	Y31	Z31	X32	Y32	Z32	X33	Y33	Z33	X34	Y34	Z34	X35	Y35	Z35	X36	Y36	Z36	X37	Y37	Z37	X38	Y38	Z38	X39	Y39	Z39	X40	Y40	Z40	X41	Y41	Z41	X42	Y42	Z42	X43	Y43	Z43	X44	Y44	Z44	X45	Y45	Z45	X46	Y46	Z46	X47	Y47	Z47	X48	Y48	Z48	X49	Y49	Z49	X50	Y50	Z50	X51	Y51	Z51	X52	Y52	Z52	X53	Y53	Z53	

336	3.35	527.3646240234375	1104.493041992188	770.8640747070312	422.2019653320312	1107.032348632812	686.3401489257812	470.1990966796875	1142.427978515625	734.0987548828125	607.5317993164062	1342.93896484375	565.6278686523438	466.9625854492188	1291.098388671875	766.5879516601562	464.6852416992188	1584.904174804688	733.3560791015625	576.6015014648438	1477.20361328125	588.220947265625	510.1869812011719	1403.709838867188	830.4304809570312	375.9288024902344	1561.291137695312	682.6824951171875	367.0048217773438	1543.76953125	572.3922119140625	297.8335266113281	1409.706909179688	561.9730224609375	282.3909606933594	1191.963012695312	560.5551147460938	305.7295532226562	1186.197021484375	645.6271362304688	361.1200561523438	927.4857177734375	512.0095825195312	301.5009765625	907.6798706054688	574.2957153320312	283.500244140625	1074.453125	553.9086303710938	379.8321533203125	732.4503173828125	519.7327270507812	313.6351318359375	830.6459350585938	554.644287109375	357.7338256835938	837.9426879882812	502.1769104003906	645.2278442382812	1573.033935546875	788.3619384765625	691.069091796875	1500.164794921875	836.6589965820312	729.7437744140625	1206.20068359375	843.0510864257812	643.1430053710938	1200.512939453125	795.4531860351562	823.7005615234375	989.0587158203125	687.7781982421875	812.9762573242188	961.3419189453125	764.9649658203125	763.6156005859375	1137.200317382812	824.103759765625	858.2001342773438	803.2529296875	634.9210205078125	860.3768310546875	890.3538208007812	654.3662719726562	849.816650390625	870.9407348632812	724.3404541015625	550.9637451171875	1758.630249023438	740.8001098632812	476.8797607421875	1820.702270507812	542.6094360351562	595.6395874023438	1843.572143554688	589.9573974609375	424.495361328125	1739.282592773438	698.9766235351562	404.3796997070312	1026.334594726562	535.298095703125	695.08837890625	1005.146179199219	753.5946655273438	713.9501342773438	1079.736328125	659.72998046875	508.6617736816406	1090.130981445312	490.5935974121094	545.4798583984375	539.59423828125	456.5134582519531	474.5020446777344	672.7349243164062	480.2157287597656	594.3257446289062	30.17884826660156	475.0768432617188	522.67578125	276.1714172363281	479.5906066894531	773.7808837890625	47.71222686767578	325.5220336914062	754.9339599609375	48.76511764526367	406.76171875	648.5672607421875	38.66189193725586	361.5847473144531	606.282958984375	32.79571914672852	566.6205444335938	653.5762329101562	508.4674682617188	760.9646606445312	695.4476318359375	790.1619262695312	739.4901733398438	394.2875366210938	125.7437744140625	1039.834716796875	599.4397583007812	404.9709167480469	842.9207153320312	497.949951171875	37.21632385253906	863.4810791015625	430.5260620117188	47.01986694335938	869.5213623046875	480.5137634277344	46.87079620361328	978.3024291992188	329.9129028320312	164.9773559570312	1032.278686523438	
337	3.36	532.98828125	1104.435668945312	762.7796630859375	427.6305541992188	1107.842895507812	678.5938720703125	475.6610412597656	1143.135620117188	726.25	612.2291259765625	1343.925048828125	557.5365600585938	472.7982788085938	1291.464111328125	759.1233520507812	470.0298767089844	1585.315185546875	726.705078125	581.2631225585938	1478.087036132812	580.6359252929688	516.4197387695312	1403.943969726562	822.9694213867188	381.0596008300781	1561.70458984375	676.4610595703125	371.6421203613281	1544.611206054688	566.2078857421875	302.3590698242188	1410.597900390625	555.477294921875	286.9765014648438	1192.878540039062	552.7335815429688	310.7575073242188	1186.547729492188	637.6631469726562	365.9695739746094	929.1286010742188	501.1139526367188	306.8799133300781	908.54443359375	563.6399536132812	288.3041381835938	1075.442016601562	545.0237426757812	385.1816101074219	734.1258544921875	506.7368469238281	318.9902648925781	831.7572631835938	543.1350708007812	362.7537536621094	839.6865844726562	490.4304504394531	650.9033203125	1573.688598632812	780.59716796875	696.9107666015625	1500.822387695312	828.7164306640625	733.42236328125	1206.679809570312	835.6898193359375	646.8974609375	1201.511352539062	787.6973266601562	826.03466796875	987.8223876953125	681.8588256835938	814.8501586914062	960.7111206054688	759.20361328125	766.8395385742188	1137.356323242188	817.193603515625	858.5033569335938	801.2914428710938	630.156982421875	861.6616821289062	888.4810791015625	649.0814819335938	850.77392578125	869.6060180664062	719.1614379882812	555.9686279296875	1759.243286132812	734.0175170898438	480.7051391601562	1821.51171875	536.3397216796875	599.7479248046875	1844.393798828125	582.9790649414062	429.2716674804688	1739.825073242188	692.8712158203125	408.8041687011719	1027.708374023438	527.4463500976562	700.4729614257812	1004.903137207031	743.914306640625	718.8367919921875	1080.202880859375	650.3753051757812	512.8311767578125	1091.4580078125	482.2894897460938	549.0797729492188	539.8927001953125	451.5621643066406	478.5808715820312	673.5614013671875	473.7108459472656	594.7115478515625	30.51640319824219	474.6535949707031	524.7247924804688	276.5282897949219	475.3753051757812	775.4282836914062	44.90422058105469	325.5597839355469	755.7957153320312	47.08564376831055	406.8203125	649.3575439453125	38.61404037475586	361.1396484375	606.1412353515625	33.17239379882812	566.1691284179688	665.5491943359375	507.7214965820312	745.9871215820312	703.114501953125	790.160400390625	727.498046875	403.8899841308594	134.9575042724609	1036.171020507812	611.664306640625	405.7035827636719	829.5283813476562	498.8530883789062	37.12333679199219	863.1015625	432.2195739746094	48.73369979858398	868.2872924804688	483.9980163574219	48.96761703491211	976.0286865234375	341.4187622070312	176.69677734375	1027.912475585938	
338	3.37	538.41748046875	1104.135986328125	754.8757934570312	432.9900207519531	1108.524291992188	670.975341796875	481.0072631835938	1143.717041015625	718.5692138671875	616.870361328125	1344.76123046875	549.5774536132812	478.4584045410156	1291.758178710938	751.7644653320312	475.3411254882812	1585.664672851562	720.0897827148438	585.8900146484375	1478.834228515625	573.15478515625	522.4735107421875	1404.124877929688	815.623779296875	386.1606140136719	1562.046264648438	670.2293090820312	376.2911376953125	1545.375732421875	560.0098266601562	306.8574829101562	1411.386962890625	548.9832153320312	291.4666442871094	1193.70068359375	544.86572265625	315.6452026367188	1186.749755859375	629.676513671875	370.7901611328125	930.7852172851562	490.0398864746094	312.1996765136719	909.3540649414062	552.764892578125	293.01708984375	1076.34521484375	536.0326538085938	390.578125	735.8348999023438	493.374267578125	324.3642272949219	832.8257446289062	531.340087890625	367.7783508300781	841.4710693359375	478.4107666015625	656.5352172851562	1574.1923828125	772.9200439453125	702.69189453125	1501.319458007812	820.8656005859375	737.2197875976562	1207.022827148438	828.4049682617188	650.7236328125	1202.298828125	780.1273193359375	828.3815307617188	986.489013671875	675.9744873046875	816.8408813476562	959.98974609375	753.4872436523438	770.1761474609375	1137.39453125	810.3385620117188	858.7877197265625	799.2667236328125	625.4066772460938	862.9362182617188	886.531005859375	643.8052368164062	851.809326171875	868.1985473632812	713.99853515625	560.994140625	1759.746215820312	727.263427734375	484.5198669433594	1822.1875	530.1094360351562	603.8409423828125	1845.123413085938	576.0272827148438	434.0895080566406	1740.2353515625	686.8096313476562	413.1689758300781	1028.966430664062	519.7077026367188	705.7245483398438	1004.523376464844	734.4745483398438	723.6458129882812	1080.568115234375	641.2667236328125	516.954345703125	1092.627807617188	474.125244140625	552.233642578125	540.0258178710938	446.93505859375	482.4302368164062	674.2156372070312	467.6779174804688	595.080810546875	30.84267234802246	474.3602294921875	526.6024169921875	276.7657470703125	471.9043273925781	776.8204345703125	42.64925765991211	325.5693054199219	756.490478515625	45.66498947143555	406.8724975585938	650.03466796875	38.61032104492188	360.8081665039062	606.1039428710938	33.47983551025391	565.8400268554688	677.4724731445312	507.01953125	730.4951782226562	710.7037353515625	790.143310546875	715.4112548828125	414.5195922851562	144.2649383544922	1031.821533203125	624.1839599609375	406.2933044433594	815.4723510742188	500.7042236328125	37.18574523925781	862.15478515625	434.7648315429688	50.93356704711914	866.5682983398438	488.5061645507812	51.65793991088867	973.2789916992188	353.896728515625	188.2438659667969	1022.953063964844	
339	3.38	543.675537109375	1103.59716796875	747.1715698242188	438.2956848144531	1109.088012695312	663.5018310546875	486.2588500976562	1144.168579101562	711.0723876953125	621.463623046875	1345.455444335938	541.7828979492188	483.9431457519531	1291.989379882812	744.5296020507812	480.6043701171875	1585.957153320312	713.5211791992188	590.4843139648438	1479.452758789062	565.80615234375	528.317138671875	1404.256713867188	808.412841796875	391.2149658203125	1562.324462890625	663.9985961914062	380.9447326660156	1546.065063476562	553.7976684570312	311.3304138183594	1412.069458007812	542.4878540039062	295.8774108886719	1194.423583984375	536.9396362304688	320.3902893066406	1186.794555664062	621.6533813476562	375.6010437011719	932.4440307617188	478.819580078125	317.4547424316406	910.108642578125	541.6839599609375	297.6481323242188	1077.1611328125	526.930419921875	396.0193176269531	737.5692138671875	479.697021484375	329.7573852539062	833.8522338867188	519.2854614257812	372.8131713867188	843.2879028320312	466.1485595703125	662.1044921875	1574.53857421875	765.3658447265625	708.3842163085938	1501.638793945312	813.1375122070312	741.16015625	1207.218627929688	821.1809692382812	654.6529541015625	1202.86083984375	772.7484130859375	830.74853515625	985.0521240234375	670.10546875	818.9801635742188	959.172119140625	747.7998046875	773.6480712890625	1137.307250976562	803.5148315429688	859.10791015625	797.1759033203125	620.6690673828125	864.2301025390625	884.504150390625	638.5245971679688	852.9718627929688	866.7234497070312	708.8423461914062	566.0435791015625	1760.147827148438	720.5390625	488.3340148925781	1822.73583984375	523.917724609375	607.9266357421875	1845.766845703125	569.110107421875	438.9473266601562	1740.52490234375	680.7919921875	417.4869384765625	1030.127685546875	512.1005249023438	710.880859375	1004.017822265625	725.2721557617188	728.4032592773438	1080.83349609375	632.4124145507812	521.0499267578125	1093.65087890625	466.1276245117188	554.9022216796875	539.9898681640625	442.6092529296875	485.9779663085938	674.7219848632812	462.094970703125	595.4104614257812	31.13304328918457	474.1748352050781	528.2406005859375	276.9029541015625	469.1651916503906	777.951416015625	40.94900512695312	325.5532836914062	757.014404296875	44.50697708129883	406.9097900390625	650.5812377929688	38.61952972412109	360.5814819335938	606.1417846679688	33.71982955932617	565.6179809570312	689.2214965820312	506.3958435058594	714.5307006835938	718.1842041015625	790.1126708984375	703.2478637695312	426.0749206542969	153.4395294189453	1026.682373046875	636.8218383789062	406.7973022460938	800.8352661132812	503.8968811035156	37.51652145385742	860.3206176757812	438.4928588867188	53.68990325927734	864.119384765625	494.2912292480469	54.99451446533203	969.8209838867188	367.1464538574219	199.3413238525391	1017.3544921875	
